<svg width="40" height="40" viewBox="0 0 40 40" fill="none" xmlns="http://www.w3.org/2000/svg">
<path d="M30.8151 3.09085C30.0183 3.30525 29.3747 3.90805 29.1191 4.67445C28.9351 5.18525 28.9759 6.00245 29.1907 6.48285C29.4463 7.04485 33.1543 10.8145 33.4407 10.8145C33.5735 10.8145 34.3907 10.0689 35.7087 8.74045C37.9051 6.53365 37.9867 6.42125 37.9867 5.39965C37.9867 4.80725 37.6087 4.00005 37.1591 3.62205C36.1683 2.78445 34.9423 2.79445 33.8187 3.64245L33.4815 3.89805L33.2055 3.67325C32.5007 3.10085 31.5811 2.87605 30.8151 3.09085Z" fill="#0796FF"/>
<path d="M9.79079 10.2524C4.59119 14.216 0.259586 17.5568 0.167586 17.6692C-0.230814 18.1492 0.126786 18.8848 0.759986 18.8848C1.07679 18.8848 2.20038 18.0572 10.3016 11.8868C15.3584 8.03557 19.5368 4.88917 19.598 4.88917C19.6592 4.88917 23.8376 8.03557 28.8944 11.8872C36.9956 18.0676 38.1196 18.8848 38.4364 18.8848C39.0696 18.8848 39.4272 18.1492 39.0392 17.6692C38.9372 17.5568 34.6056 14.2164 29.4056 10.2524C21.0692 3.90837 19.9152 3.06037 19.5984 3.05037C19.2816 3.05037 18.1576 3.87757 9.79079 10.2524Z" fill="#0796FF"/>
<path d="M18.7301 7.24844C18.2805 7.58564 14.6337 10.2316 10.6189 13.1428L4.19394 17.8016C3.65648 18.1914 3.34743 18.8224 3.36906 19.4859L3.39607 20.3148C3.42687 21.3568 3.45727 25.6884 3.45727 29.938V35.6816C3.45727 36.7862 4.3527 37.6816 5.45727 37.6816H19.5985H33.7397C34.8442 37.6816 35.7397 36.7862 35.7397 35.6816V29.1208C35.7397 24.4012 35.7705 20.0696 35.8009 19.4872V19.4872C35.839 18.8252 35.5374 18.1894 35.0006 17.8001L27.7609 12.5504C23.3069 9.32204 19.6393 6.66604 19.6085 6.65604C19.5777 6.64604 19.1793 6.91164 18.7301 7.24844ZM17.5141 22.0512C18.1169 22.3064 18.5969 22.7764 19.0873 23.5836C19.3221 23.982 19.5573 24.2988 19.5981 24.2988C19.6389 24.2988 19.8637 23.9924 20.0885 23.604C20.8445 22.3476 21.6313 21.8368 22.8161 21.8368C23.9193 21.8368 24.9205 22.4396 25.4517 23.4304C25.7685 24.0128 25.7685 25.402 25.4517 25.9844C25.3293 26.2092 23.9601 27.6596 22.4177 29.2024L21.0097 30.6052C20.2292 31.3828 18.9669 31.3828 18.1865 30.6052L16.7785 29.2024C15.2361 27.6596 13.8669 26.2092 13.7445 25.9844C13.4481 25.4328 13.4277 24.0228 13.7137 23.4816C14.4597 22.0616 16.0941 21.4484 17.5141 22.0512Z" fill="#0796FF"/>
</svg>
