<svg width="197" height="80" viewBox="0 0 197 80" fill="none" xmlns="http://www.w3.org/2000/svg">
<path d="M102.479 21.7605H109.28C109.28 21.7605 119.966 22.304 119.966 31.9293C119.966 41.5546 112.811 42.3309 112.811 42.3309C112.811 42.3309 118.11 42.5643 118.817 47.1439C119.524 51.7234 119.17 57.0799 124.647 59.3301H118.554C118.554 59.3301 109.368 59.1753 107.867 52.8872C108.132 46.7551 104.511 43.109 103.097 42.7964C104.777 41.1659 110.516 38.6823 109.103 30.2208C107.69 21.7593 102.479 21.7605 102.479 21.7605Z" fill="#3A75B4"/>
<path d="M83.0195 73.3323C83.0068 73.1293 82.9941 72.8534 82.9814 72.5045C82.9687 72.1556 82.9624 71.7971 82.9624 71.4292C82.9624 71.2199 82.9624 71.0042 82.9624 70.7822C82.9687 70.5538 82.9751 70.3222 82.9814 70.0875C82.9941 69.6181 83.0227 69.2502 83.0671 68.9837C83.1178 68.7173 83.213 68.5175 83.3525 68.3842C83.4984 68.251 83.7014 68.1686 83.9615 68.1368C84.2216 68.1051 84.5674 68.0893 84.9987 68.0893C85.0051 68.0893 85.0717 68.0893 85.1986 68.0893C85.3318 68.0893 85.4904 68.0924 85.6743 68.0988C85.8583 68.0988 86.0486 68.1019 86.2453 68.1083C86.4483 68.1146 86.6164 68.121 86.7496 68.1273C86.8891 68.14 87.0002 68.159 87.0826 68.1844C87.1714 68.2034 87.238 68.232 87.2825 68.2701C87.3269 68.3018 87.3554 68.343 87.3681 68.3938C87.3808 68.4382 87.3871 68.4889 87.3871 68.546C87.3871 68.6919 87.3459 68.7998 87.2634 68.8695C87.181 68.933 87.0128 68.9742 86.7591 68.9932C86.6322 69.0059 86.4451 69.0154 86.1977 69.0218C85.9566 69.0218 85.7092 69.0218 85.4555 69.0218C85.2017 69.0218 84.9734 69.025 84.7704 69.0313C84.5674 69.0313 84.4405 69.0313 84.3897 69.0313C84.2248 69.0376 84.1074 69.0757 84.0377 69.1455C83.9742 69.2089 83.9425 69.3643 83.9425 69.6117C83.9425 69.6688 83.9457 69.8084 83.952 70.0304C83.9647 70.2461 83.971 70.5506 83.971 70.9439H84.7608C85.0971 70.9439 85.3698 70.9503 85.5792 70.963C85.7949 70.9693 85.9598 70.9883 86.074 71.02C86.1945 71.0518 86.277 71.1025 86.3214 71.1723C86.3658 71.2421 86.388 71.3341 86.388 71.4482C86.388 71.5053 86.3817 71.5593 86.369 71.61C86.3626 71.6544 86.3372 71.6956 86.2928 71.7337C86.2484 71.7654 86.185 71.794 86.1025 71.8194C86.0201 71.8384 85.9027 71.8542 85.7505 71.8669C85.5665 71.8796 85.392 71.8891 85.2271 71.8955C85.0685 71.8955 84.9099 71.8955 84.7513 71.8955H83.952C83.952 71.9906 83.952 72.1048 83.952 72.238C83.952 72.3713 83.952 72.5076 83.952 72.6472C83.952 72.7868 83.952 72.9232 83.952 73.0564C83.9584 73.1896 83.9647 73.2974 83.971 73.3799C83.9774 73.4814 83.9901 73.567 84.0091 73.6368C84.0345 73.7066 84.0757 73.7637 84.1328 73.8081C84.1962 73.8525 84.2851 73.8842 84.3992 73.9033C84.5198 73.9223 84.6784 73.9318 84.875 73.9318H86.9209C87.1429 73.9318 87.2825 73.973 87.3395 74.0555C87.3966 74.138 87.4252 74.249 87.4252 74.3885C87.4252 74.5027 87.3998 74.5915 87.3491 74.655C87.2983 74.7121 87.1746 74.7533 86.978 74.7787C86.7876 74.8104 86.499 74.8294 86.112 74.8358C85.7314 74.8421 85.2049 74.8453 84.5325 74.8453C84.247 74.8453 84.0123 74.8199 83.8283 74.7692C83.6443 74.7184 83.4953 74.6328 83.3811 74.5122C83.2669 74.3917 83.1813 74.2363 83.1242 74.046C83.0734 73.8493 83.0385 73.6114 83.0195 73.3323Z" fill="#3A75B4"/>
<path d="M91.0322 69.9258C91.2161 69.9258 91.4001 69.9416 91.5841 69.9733C91.7744 70.0051 91.9457 70.0495 92.0979 70.1066C92.2502 70.1636 92.3739 70.2334 92.469 70.3159C92.5642 70.3984 92.6117 70.4935 92.6117 70.6014C92.6117 70.8805 92.4532 71.02 92.136 71.02C92.0598 71.02 91.9869 71.0105 91.9171 70.9915C91.8537 70.9661 91.7776 70.9439 91.6887 70.9249C91.5999 70.8995 91.4889 70.8773 91.3557 70.8583C91.2225 70.8329 91.0575 70.8202 90.8609 70.8202C90.4422 70.8202 90.1187 70.963 89.8903 71.2484C89.6619 71.5339 89.5477 71.905 89.5477 72.3617C89.5477 72.8629 89.6619 73.2657 89.8903 73.5702C90.125 73.8747 90.4549 74.027 90.8799 74.027C91.1464 74.027 91.362 74.0048 91.527 73.9603C91.6919 73.9159 91.8251 73.8652 91.9266 73.8081C92.0345 73.751 92.1201 73.7003 92.1835 73.6558C92.2533 73.6114 92.3295 73.5892 92.4119 73.5892C92.5261 73.5892 92.6149 73.6146 92.6784 73.6654C92.7481 73.7098 92.783 73.8049 92.783 73.9508C92.783 74.1031 92.7228 74.2363 92.6022 74.3505C92.488 74.4647 92.3421 74.5598 92.1645 74.6359C91.9869 74.7121 91.7934 74.7692 91.5841 74.8072C91.3811 74.8453 91.1939 74.8643 91.0227 74.8643C90.2551 74.8643 89.6524 74.6518 89.2147 74.2268C88.777 73.8018 88.5581 73.1991 88.5581 72.4188C88.5581 72.0826 88.6089 71.7654 88.7104 71.4673C88.8182 71.1628 88.9768 70.8963 89.1862 70.668C89.3955 70.4396 89.6524 70.2588 89.9569 70.1256C90.2678 69.9924 90.6262 69.9258 91.0322 69.9258Z" fill="#3A75B4"/>
<path d="M96.5518 69.9543C96.9134 69.9543 97.237 70.0114 97.5224 70.1256C97.8079 70.2334 98.049 70.3888 98.2456 70.5918C98.4486 70.7948 98.604 71.0422 98.7119 71.3341C98.8197 71.6259 98.8736 71.9526 98.8736 72.3142C98.8736 72.7138 98.8102 73.0722 98.6833 73.3894C98.5628 73.7066 98.3915 73.9762 98.1695 74.1982C97.9538 74.4203 97.6937 74.5915 97.3892 74.7121C97.0911 74.8326 96.7644 74.8929 96.4091 74.8929C96.0221 74.8929 95.6796 74.8263 95.3814 74.693C95.0896 74.5598 94.8422 74.379 94.6392 74.1507C94.4426 73.9223 94.2935 73.659 94.192 73.3609C94.0905 73.0627 94.0397 72.7487 94.0397 72.4188C94.0397 72.0572 94.0968 71.7274 94.211 71.4292C94.3316 71.1247 94.4997 70.8646 94.7153 70.6489C94.9374 70.4269 95.2038 70.2556 95.5147 70.1351C95.8255 70.0146 96.1712 69.9543 96.5518 69.9543ZM96.4472 74.0174C96.7073 74.0174 96.9293 73.973 97.1133 73.8842C97.2972 73.7891 97.4463 73.6654 97.5605 73.5131C97.681 73.3609 97.7667 73.1896 97.8174 72.9993C97.8745 72.8026 97.9031 72.5996 97.9031 72.3903C97.9031 72.1746 97.8745 71.9748 97.8174 71.7908C97.7667 71.6005 97.6842 71.4356 97.57 71.296C97.4622 71.1564 97.3194 71.0486 97.1418 70.9725C96.9705 70.89 96.7644 70.8488 96.5233 70.8488C96.2759 70.8488 96.0602 70.89 95.8762 70.9725C95.6923 71.0549 95.5369 71.1691 95.41 71.315C95.2895 71.4546 95.1975 71.6227 95.134 71.8194C95.0706 72.016 95.0389 72.2285 95.0389 72.4569C95.0389 72.92 95.1562 73.2974 95.391 73.5892C95.632 73.8747 95.9841 74.0174 96.4472 74.0174Z" fill="#3A75B4"/>
<path d="M102.722 70.7251C102.488 70.7251 102.275 70.7631 102.085 70.8393C101.901 70.9154 101.691 71.0296 101.457 71.1818C101.457 71.315 101.457 71.5117 101.457 71.7718C101.457 72.0255 101.453 72.3046 101.447 72.6091C101.441 72.9073 101.434 73.2023 101.428 73.4941C101.422 73.7859 101.409 74.0301 101.39 74.2268C101.377 74.3537 101.362 74.4552 101.342 74.5313C101.33 74.6011 101.308 74.655 101.276 74.693C101.25 74.7311 101.212 74.7565 101.162 74.7692C101.117 74.7755 101.057 74.7787 100.981 74.7787C100.905 74.7787 100.841 74.7755 100.791 74.7692C100.746 74.7565 100.708 74.7343 100.676 74.7026C100.645 74.6645 100.619 74.6106 100.6 74.5408C100.581 74.471 100.565 74.3759 100.553 74.2553C100.54 74.1411 100.527 73.9889 100.515 73.7986C100.508 73.6083 100.502 73.4021 100.496 73.1801C100.489 72.9517 100.483 72.7233 100.477 72.495C100.477 72.2602 100.477 72.0446 100.477 71.8479C100.477 71.5244 100.48 71.2611 100.486 71.0581C100.499 70.8551 100.518 70.6743 100.543 70.5157C100.581 70.2493 100.632 70.0812 100.695 70.0114C100.759 69.9416 100.844 69.9067 100.952 69.9067C101.111 69.9067 101.228 69.9511 101.304 70.0399C101.387 70.1288 101.438 70.2747 101.457 70.4777C101.691 70.2747 101.942 70.1129 102.208 69.9924C102.481 69.8718 102.76 69.8116 103.046 69.8116C103.319 69.8116 103.566 69.875 103.788 70.0019C104.016 70.1288 104.203 70.3349 104.349 70.6204C104.438 70.7917 104.505 70.982 104.549 71.1913C104.594 71.3943 104.625 71.61 104.644 71.8384C104.651 71.9399 104.657 72.0414 104.663 72.1429C104.67 72.238 104.673 72.3427 104.673 72.4569C104.679 72.5647 104.682 72.6884 104.682 72.828C104.682 72.9676 104.682 73.1325 104.682 73.3228C104.682 73.5258 104.679 73.7161 104.673 73.8937C104.667 74.0714 104.648 74.2268 104.616 74.36C104.59 74.4869 104.543 74.5884 104.473 74.6645C104.403 74.7343 104.308 74.7692 104.188 74.7692C103.896 74.7692 103.744 74.6296 103.731 74.3505C103.731 74.3315 103.731 74.2522 103.731 74.1126C103.731 73.9667 103.728 73.7986 103.721 73.6083C103.721 73.418 103.718 73.2245 103.712 73.0278C103.712 72.8312 103.709 72.6694 103.702 72.5425C103.696 72.441 103.686 72.3332 103.674 72.219C103.667 72.0985 103.655 71.9779 103.636 71.8574C103.623 71.7369 103.604 71.6227 103.579 71.5149C103.553 71.4007 103.522 71.2992 103.483 71.2104C103.395 71.001 103.284 70.8678 103.15 70.8107C103.017 70.7536 102.874 70.7251 102.722 70.7251Z" fill="#3A75B4"/>
<path d="M108.742 69.9543C109.104 69.9543 109.427 70.0114 109.713 70.1256C109.998 70.2334 110.239 70.3888 110.436 70.5918C110.639 70.7948 110.794 71.0422 110.902 71.3341C111.01 71.6259 111.064 71.9526 111.064 72.3142C111.064 72.7138 111 73.0722 110.874 73.3894C110.753 73.7066 110.582 73.9762 110.36 74.1982C110.144 74.4203 109.884 74.5915 109.58 74.7121C109.281 74.8326 108.955 74.8929 108.599 74.8929C108.212 74.8929 107.87 74.8263 107.572 74.693C107.28 74.5598 107.033 74.379 106.83 74.1507C106.633 73.9223 106.484 73.659 106.382 73.3609C106.281 73.0627 106.23 72.7487 106.23 72.4188C106.23 72.0572 106.287 71.7274 106.401 71.4292C106.522 71.1247 106.69 70.8646 106.906 70.6489C107.128 70.4269 107.394 70.2556 107.705 70.1351C108.016 70.0146 108.362 69.9543 108.742 69.9543ZM108.637 74.0174C108.898 74.0174 109.12 73.973 109.304 73.8842C109.488 73.7891 109.637 73.6654 109.751 73.5131C109.871 73.3609 109.957 73.1896 110.008 72.9993C110.065 72.8026 110.093 72.5996 110.093 72.3903C110.093 72.1746 110.065 71.9748 110.008 71.7908C109.957 71.6005 109.874 71.4356 109.76 71.296C109.652 71.1564 109.51 71.0486 109.332 70.9725C109.161 70.89 108.955 70.8488 108.714 70.8488C108.466 70.8488 108.25 70.89 108.067 70.9725C107.883 71.0549 107.727 71.1691 107.6 71.315C107.48 71.4546 107.388 71.6227 107.324 71.8194C107.261 72.016 107.229 72.2285 107.229 72.4569C107.229 72.92 107.347 73.2974 107.581 73.5892C107.822 73.8747 108.174 74.0174 108.637 74.0174Z" fill="#3A75B4"/>
<path d="M119.09 74.4932C119.052 74.3854 119.026 74.2648 119.014 74.1316C119.007 73.9984 119.004 73.8335 119.004 73.6368C119.004 73.4973 119.004 73.3894 119.004 73.3133C119.011 73.2308 119.014 73.161 119.014 73.1039C119.014 73.0405 119.014 72.9802 119.014 72.9232C119.02 72.8597 119.023 72.7741 119.023 72.6662C119.023 72.4442 119.017 72.2222 119.004 72.0001C118.998 71.7718 118.966 71.5688 118.909 71.3912C118.852 71.2072 118.763 71.0581 118.643 70.9439C118.522 70.8297 118.348 70.7726 118.119 70.7726C117.732 70.7726 117.431 70.9566 117.215 71.3245C117 71.6925 116.87 72.2793 116.825 73.0849C116.812 73.3387 116.806 73.5702 116.806 73.7796C116.806 73.9889 116.793 74.1697 116.768 74.3219C116.743 74.4678 116.695 74.582 116.625 74.6645C116.562 74.747 116.454 74.7882 116.302 74.7882C116.162 74.7882 116.061 74.7533 115.997 74.6835C115.934 74.6074 115.886 74.4964 115.855 74.3505C115.829 74.2046 115.813 74.027 115.807 73.8176C115.807 73.6083 115.797 73.364 115.778 73.0849C115.759 72.7804 115.728 72.4886 115.683 72.2095C115.645 71.9304 115.579 71.6861 115.483 71.4768C115.395 71.2611 115.271 71.0898 115.112 70.963C114.96 70.8361 114.763 70.7726 114.522 70.7726C114.294 70.7726 114.116 70.8297 113.99 70.9439C113.869 71.0518 113.78 71.1977 113.723 71.3816C113.666 71.5593 113.631 71.7623 113.618 71.9906C113.612 72.2127 113.609 72.4379 113.609 72.6662C113.609 72.7804 113.609 72.8661 113.609 72.9232C113.615 72.9739 113.618 73.0215 113.618 73.0659C113.618 73.1103 113.618 73.1674 113.618 73.2372C113.625 73.3069 113.628 73.4148 113.628 73.5607C113.628 73.77 113.622 73.9508 113.609 74.1031C113.603 74.2553 113.58 74.3854 113.542 74.4932C113.498 74.6201 113.438 74.6994 113.361 74.7311C113.285 74.7565 113.216 74.7692 113.152 74.7692C112.955 74.7692 112.829 74.6994 112.772 74.5598C112.714 74.4203 112.683 74.2173 112.676 73.9508C112.676 73.8049 112.673 73.6432 112.667 73.4655C112.667 73.2816 112.667 73.0595 112.667 72.7995C112.667 72.6726 112.667 72.5616 112.667 72.4664C112.667 72.3713 112.667 72.2793 112.667 72.1905C112.673 72.1016 112.676 72.0128 112.676 71.924C112.683 71.8289 112.689 71.721 112.695 71.6005C112.714 71.2135 112.784 70.9059 112.905 70.6775C113.025 70.4428 113.168 70.2651 113.333 70.1446C113.498 70.0241 113.675 69.948 113.866 69.9162C114.056 69.8782 114.231 69.8592 114.389 69.8592C114.732 69.8592 115.02 69.9099 115.255 70.0114C115.49 70.1129 115.68 70.2461 115.826 70.4111C115.978 70.576 116.089 70.7631 116.159 70.9725C116.235 71.1818 116.286 71.3943 116.311 71.61C116.337 71.4007 116.387 71.1945 116.464 70.9915C116.546 70.7822 116.663 70.5982 116.816 70.4396C116.974 70.2747 117.177 70.1414 117.425 70.0399C117.672 69.9384 117.977 69.8877 118.338 69.8877C118.509 69.8877 118.684 69.9067 118.861 69.9448C119.045 69.9765 119.214 70.0526 119.366 70.1732C119.518 70.2937 119.645 70.4681 119.746 70.6965C119.854 70.9185 119.918 71.2199 119.937 71.6005C119.943 71.721 119.946 71.8289 119.946 71.924C119.953 72.0128 119.956 72.1016 119.956 72.1905C119.962 72.2793 119.965 72.3713 119.965 72.4664C119.965 72.5616 119.965 72.6726 119.965 72.7995C119.965 73.0595 119.962 73.2816 119.956 73.4655C119.956 73.6432 119.956 73.8049 119.956 73.9508C119.956 74.0714 119.949 74.1824 119.937 74.2839C119.93 74.3854 119.911 74.471 119.88 74.5408C119.848 74.6106 119.8 74.6677 119.737 74.7121C119.68 74.7501 119.594 74.7692 119.48 74.7692C119.372 74.7692 119.29 74.7501 119.233 74.7121C119.175 74.6677 119.128 74.5947 119.09 74.4932Z" fill="#3A75B4"/>
<path d="M121.905 74.1887C121.892 73.954 121.879 73.6876 121.867 73.3894C121.86 73.0849 121.857 72.7519 121.857 72.3903C121.857 71.9399 121.86 71.5561 121.867 71.2389C121.873 70.9154 121.889 70.6521 121.914 70.4491C121.946 70.2398 121.993 70.0875 122.057 69.9924C122.12 69.8909 122.209 69.8401 122.323 69.8401C122.431 69.8401 122.526 69.8782 122.609 69.9543C122.691 70.0304 122.739 70.1954 122.752 70.4491C122.79 71.1152 122.809 71.7591 122.809 72.3808C122.809 72.698 122.802 72.9961 122.79 73.2752C122.777 73.548 122.764 73.8493 122.752 74.1792C122.745 74.3315 122.729 74.4488 122.704 74.5313C122.685 74.6137 122.656 74.6772 122.618 74.7216C122.58 74.766 122.536 74.7914 122.485 74.7977C122.441 74.8104 122.387 74.8167 122.323 74.8167C122.209 74.8167 122.114 74.7787 122.038 74.7026C121.962 74.6201 121.917 74.4488 121.905 74.1887ZM122.333 68.1178C122.479 68.1178 122.612 68.1749 122.732 68.2891C122.859 68.4033 122.923 68.5397 122.923 68.6983C122.923 68.8505 122.859 68.9837 122.732 69.0979C122.606 69.2058 122.463 69.2597 122.304 69.2597C122.171 69.2597 122.044 69.2058 121.924 69.0979C121.809 68.9837 121.752 68.8442 121.752 68.6792C121.752 68.527 121.809 68.3969 121.924 68.2891C122.044 68.1749 122.181 68.1178 122.333 68.1178Z" fill="#3A75B4"/>
<path d="M126.915 69.9258C127.099 69.9258 127.283 69.9416 127.467 69.9733C127.658 70.0051 127.829 70.0495 127.981 70.1066C128.133 70.1636 128.257 70.2334 128.352 70.3159C128.447 70.3984 128.495 70.4935 128.495 70.6014C128.495 70.8805 128.336 71.02 128.019 71.02C127.943 71.02 127.87 71.0105 127.8 70.9915C127.737 70.9661 127.661 70.9439 127.572 70.9249C127.483 70.8995 127.372 70.8773 127.239 70.8583C127.106 70.8329 126.941 70.8202 126.744 70.8202C126.325 70.8202 126.002 70.963 125.774 71.2484C125.545 71.5339 125.431 71.905 125.431 72.3617C125.431 72.8629 125.545 73.2657 125.774 73.5702C126.008 73.8747 126.338 74.027 126.763 74.027C127.03 74.027 127.245 74.0048 127.41 73.9603C127.575 73.9159 127.708 73.8652 127.81 73.8081C127.918 73.751 128.003 73.7003 128.067 73.6558C128.137 73.6114 128.213 73.5892 128.295 73.5892C128.409 73.5892 128.498 73.6146 128.562 73.6654C128.631 73.7098 128.666 73.8049 128.666 73.9508C128.666 74.1031 128.606 74.2363 128.485 74.3505C128.371 74.4647 128.225 74.5598 128.048 74.6359C127.87 74.7121 127.677 74.7692 127.467 74.8072C127.264 74.8453 127.077 74.8643 126.906 74.8643C126.138 74.8643 125.536 74.6518 125.098 74.2268C124.66 73.8018 124.441 73.1991 124.441 72.4188C124.441 72.0826 124.492 71.7654 124.594 71.4673C124.701 71.1628 124.86 70.8963 125.069 70.668C125.279 70.4396 125.536 70.2588 125.84 70.1256C126.151 69.9924 126.509 69.9258 126.915 69.9258Z" fill="#3A75B4"/>
<path d="M133.805 74.1602C133.786 73.7605 133.773 73.2879 133.767 72.7424C133.767 72.1905 133.767 71.5656 133.767 70.8678C133.704 70.8741 133.628 70.8773 133.539 70.8773C133.456 70.8773 133.39 70.8773 133.339 70.8773C133.225 70.8773 133.12 70.8741 133.025 70.8678C132.936 70.8615 132.857 70.8424 132.787 70.8107C132.717 70.779 132.663 70.7346 132.625 70.6775C132.587 70.614 132.568 70.5284 132.568 70.4206C132.568 70.1161 132.797 69.9638 133.253 69.9638C133.323 69.9638 133.409 69.9638 133.51 69.9638C133.612 69.9638 133.697 69.9702 133.767 69.9829C133.767 69.6466 133.773 69.377 133.786 69.174C133.799 68.971 133.821 68.8156 133.853 68.7078C133.891 68.5936 133.938 68.5206 133.995 68.4889C134.059 68.4509 134.138 68.4318 134.233 68.4318C134.335 68.4318 134.417 68.4667 134.481 68.5365C134.544 68.6063 134.592 68.6951 134.623 68.8029C134.662 68.9108 134.684 69.0313 134.69 69.1645C134.703 69.2977 134.709 69.4278 134.709 69.5547C134.709 69.6435 134.706 69.7259 134.7 69.8021C134.7 69.8718 134.7 69.9353 134.7 69.9924C134.788 69.967 134.88 69.9543 134.976 69.9543C135.071 69.948 135.163 69.9448 135.252 69.9448C135.486 69.9448 135.667 69.9829 135.794 70.059C135.921 70.1288 135.984 70.2461 135.984 70.4111C135.984 70.5126 135.962 70.595 135.918 70.6585C135.873 70.7155 135.813 70.76 135.737 70.7917C135.667 70.8234 135.581 70.8456 135.48 70.8583C135.385 70.8646 135.28 70.8678 135.166 70.8678C135.102 70.8678 135.029 70.8678 134.947 70.8678C134.865 70.8678 134.788 70.8615 134.719 70.8488C134.719 71.185 134.719 71.4927 134.719 71.7718C134.719 72.0509 134.715 72.3205 134.709 72.5806C134.703 72.8343 134.696 73.0881 134.69 73.3418C134.684 73.5956 134.674 73.8652 134.662 74.1507C134.655 74.3029 134.639 74.4203 134.614 74.5027C134.595 74.5852 134.566 74.6486 134.528 74.693C134.49 74.7374 134.446 74.766 134.395 74.7787C134.351 74.785 134.297 74.7882 134.233 74.7882C134.119 74.7882 134.021 74.7501 133.938 74.674C133.862 74.5915 133.818 74.4203 133.805 74.1602Z" fill="#3A75B4"/>
<path d="M137.578 74.1982C137.552 73.9762 137.536 73.7066 137.53 73.3894C137.524 73.0722 137.521 72.6884 137.521 72.238C137.521 71.794 137.521 71.4356 137.521 71.1628C137.527 70.89 137.546 70.6489 137.578 70.4396C137.609 70.1795 137.657 70.0114 137.72 69.9353C137.79 69.8592 137.879 69.8211 137.987 69.8211C138.063 69.8211 138.13 69.8274 138.187 69.8401C138.25 69.8528 138.304 69.8814 138.348 69.9258C138.399 69.9638 138.437 70.0209 138.463 70.097C138.488 70.1732 138.501 70.2778 138.501 70.4111C138.501 70.4364 138.504 70.4618 138.51 70.4872C138.51 70.5126 138.51 70.5411 138.51 70.5728C138.517 70.5982 138.52 70.6299 138.52 70.668C138.691 70.4523 138.884 70.2683 139.1 70.1161C139.322 69.9638 139.573 69.8877 139.852 69.8877C140.226 69.8877 140.413 70.0431 140.413 70.354C140.413 70.4681 140.388 70.5633 140.337 70.6394C140.293 70.7155 140.226 70.779 140.137 70.8297C140.055 70.8741 139.957 70.909 139.842 70.9344C139.735 70.9598 139.614 70.9852 139.481 71.0105C139.278 71.0486 139.087 71.1215 138.91 71.2294C138.732 71.3309 138.612 71.4609 138.548 71.6195C138.548 71.7401 138.548 71.8289 138.548 71.886C138.555 71.9431 138.558 71.9906 138.558 72.0287C138.564 72.0668 138.567 72.108 138.567 72.1524C138.567 72.1968 138.567 72.2666 138.567 72.3617C138.567 72.6853 138.561 72.9898 138.548 73.2752C138.536 73.5543 138.523 73.8588 138.51 74.1887C138.504 74.341 138.485 74.4583 138.453 74.5408C138.428 74.6233 138.393 74.6867 138.348 74.7311C138.31 74.7755 138.266 74.8009 138.215 74.8072C138.164 74.8199 138.114 74.8263 138.063 74.8263C137.885 74.8263 137.765 74.7882 137.701 74.7121C137.644 74.6296 137.603 74.4583 137.578 74.1982Z" fill="#3A75B4"/>
<path d="M141.945 74.1887C141.932 73.954 141.919 73.6876 141.907 73.3894C141.9 73.0849 141.897 72.7519 141.897 72.3903C141.897 71.9399 141.9 71.5561 141.907 71.2389C141.913 70.9154 141.929 70.6521 141.954 70.4491C141.986 70.2398 142.034 70.0875 142.097 69.9924C142.161 69.8909 142.249 69.8401 142.364 69.8401C142.471 69.8401 142.567 69.8782 142.649 69.9543C142.731 70.0304 142.779 70.1954 142.792 70.4491C142.83 71.1152 142.849 71.7591 142.849 72.3808C142.849 72.698 142.843 72.9961 142.83 73.2752C142.817 73.548 142.804 73.8493 142.792 74.1792C142.785 74.3315 142.77 74.4488 142.744 74.5313C142.725 74.6137 142.697 74.6772 142.659 74.7216C142.62 74.766 142.576 74.7914 142.525 74.7977C142.481 74.8104 142.427 74.8167 142.364 74.8167C142.249 74.8167 142.154 74.7787 142.078 74.7026C142.002 74.6201 141.958 74.4488 141.945 74.1887ZM142.373 68.1178C142.519 68.1178 142.652 68.1749 142.773 68.2891C142.9 68.4033 142.963 68.5397 142.963 68.6983C142.963 68.8505 142.9 68.9837 142.773 69.0979C142.646 69.2058 142.503 69.2597 142.345 69.2597C142.211 69.2597 142.084 69.2058 141.964 69.0979C141.85 68.9837 141.793 68.8442 141.793 68.6792C141.793 68.527 141.85 68.3969 141.964 68.2891C142.084 68.1749 142.221 68.1178 142.373 68.1178Z" fill="#3A75B4"/>
<path d="M145.823 76.1489C145.823 76.2694 145.82 76.3836 145.814 76.4915C145.807 76.6057 145.785 76.7072 145.747 76.796C145.715 76.8848 145.665 76.9546 145.595 77.0053C145.531 77.0624 145.439 77.091 145.319 77.091C145.179 77.091 145.062 77.0402 144.967 76.9387C144.878 76.8436 144.827 76.6723 144.815 76.4249C144.808 76.2663 144.799 76.0728 144.786 75.8444C144.773 75.616 144.761 75.375 144.748 75.1212C144.742 74.8675 144.732 74.6137 144.719 74.36C144.713 74.1063 144.71 73.8715 144.71 73.6558C144.71 72.9136 144.761 72.3015 144.862 71.8194C144.97 71.3372 145.129 70.9534 145.338 70.668C145.547 70.3825 145.804 70.1827 146.109 70.0685C146.42 69.9543 146.778 69.8972 147.184 69.8972C147.508 69.8972 147.812 69.948 148.097 70.0495C148.383 70.1446 148.63 70.2969 148.84 70.5062C149.055 70.7092 149.227 70.9756 149.354 71.3055C149.48 71.629 149.544 72.0192 149.544 72.4759C149.544 72.8565 149.477 73.1928 149.344 73.4846C149.217 73.7764 149.04 74.0238 148.811 74.2268C148.583 74.4234 148.313 74.5757 148.002 74.6835C147.698 74.785 147.371 74.8358 147.022 74.8358C146.724 74.8358 146.454 74.7755 146.213 74.655C145.979 74.5281 145.811 74.3917 145.709 74.2458C145.741 74.6011 145.766 74.9309 145.785 75.2354C145.811 75.5399 145.823 75.8444 145.823 76.1489ZM147.136 70.8488C146.914 70.8488 146.721 70.8868 146.556 70.963C146.397 71.0391 146.267 71.1437 146.166 71.277C146.064 71.4102 145.988 71.5688 145.937 71.7527C145.893 71.9367 145.871 72.1365 145.871 72.3522C145.871 72.5616 145.89 72.7614 145.928 72.9517C145.972 73.1357 146.042 73.2974 146.137 73.437C146.232 73.5766 146.359 73.6876 146.518 73.77C146.676 73.8525 146.87 73.8937 147.098 73.8937C147.276 73.8937 147.447 73.8715 147.612 73.8271C147.777 73.7764 147.923 73.6939 148.05 73.5797C148.183 73.4655 148.288 73.3133 148.364 73.123C148.446 72.9327 148.488 72.6948 148.488 72.4093C148.488 72.1175 148.446 71.8733 148.364 71.6766C148.288 71.4736 148.183 71.3119 148.05 71.1913C147.923 71.0645 147.777 70.9756 147.612 70.9249C147.454 70.8741 147.295 70.8488 147.136 70.8488Z" fill="#3A75B4"/>
<path d="M154.129 70.9154C154.059 70.9217 153.989 70.9281 153.92 70.9344C153.856 70.9344 153.793 70.9344 153.729 70.9344C153.52 70.9344 153.365 70.9027 153.263 70.8393C153.155 70.7695 153.101 70.6394 153.101 70.4491C153.101 70.3032 153.142 70.189 153.225 70.1066C153.301 70.0177 153.456 69.9733 153.691 69.9733C153.837 69.9733 153.986 69.9829 154.138 70.0019V69.45C154.138 69.1962 154.167 68.9552 154.224 68.7268C154.281 68.4984 154.37 68.2986 154.491 68.1273C154.611 67.9497 154.766 67.8101 154.957 67.7086C155.153 67.6008 155.391 67.5469 155.67 67.5469C155.924 67.5469 156.102 67.5849 156.203 67.6611C156.305 67.7308 156.356 67.8482 156.356 68.0131C156.356 68.1781 156.289 68.2796 156.156 68.3176C156.023 68.3557 155.87 68.3747 155.699 68.3747C155.49 68.3747 155.331 68.4667 155.223 68.6507C155.122 68.8346 155.071 69.0598 155.071 69.3263V69.9924C155.153 69.9733 155.233 69.9638 155.309 69.9638C155.391 69.9575 155.477 69.9543 155.566 69.9543C155.8 69.9543 155.965 69.9924 156.061 70.0685C156.162 70.1446 156.213 70.2651 156.213 70.4301C156.213 70.6394 156.146 70.7758 156.013 70.8393C155.88 70.8963 155.702 70.9249 155.48 70.9249C155.423 70.9249 155.356 70.9249 155.28 70.9249C155.211 70.9249 155.141 70.9185 155.071 70.9059V74.1792C155.071 74.3315 155.058 74.4488 155.033 74.5313C155.008 74.6137 154.973 74.6772 154.928 74.7216C154.884 74.766 154.833 74.7914 154.776 74.7977C154.719 74.8104 154.659 74.8167 154.595 74.8167C154.538 74.8167 154.481 74.8072 154.424 74.7882C154.367 74.7755 154.316 74.747 154.272 74.7026C154.234 74.6518 154.199 74.5852 154.167 74.5027C154.142 74.4203 154.129 74.3156 154.129 74.1887V70.9154Z" fill="#3A75B4"/>
<path d="M159.666 69.9543C160.028 69.9543 160.351 70.0114 160.637 70.1256C160.922 70.2334 161.163 70.3888 161.36 70.5918C161.563 70.7948 161.718 71.0422 161.826 71.3341C161.934 71.6259 161.988 71.9526 161.988 72.3142C161.988 72.7138 161.925 73.0722 161.798 73.3894C161.677 73.7066 161.506 73.9762 161.284 74.1982C161.068 74.4203 160.808 74.5915 160.504 74.7121C160.205 74.8326 159.879 74.8929 159.523 74.8929C159.137 74.8929 158.794 74.8263 158.496 74.693C158.204 74.5598 157.957 74.379 157.754 74.1507C157.557 73.9223 157.408 73.659 157.306 73.3609C157.205 73.0627 157.154 72.7487 157.154 72.4188C157.154 72.0572 157.211 71.7274 157.325 71.4292C157.446 71.1247 157.614 70.8646 157.83 70.6489C158.052 70.4269 158.318 70.2556 158.629 70.1351C158.94 70.0146 159.286 69.9543 159.666 69.9543ZM159.562 74.0174C159.822 74.0174 160.044 73.973 160.228 73.8842C160.412 73.7891 160.561 73.6654 160.675 73.5131C160.795 73.3609 160.881 73.1896 160.932 72.9993C160.989 72.8026 161.017 72.5996 161.017 72.3903C161.017 72.1746 160.989 71.9748 160.932 71.7908C160.881 71.6005 160.799 71.4356 160.684 71.296C160.577 71.1564 160.434 71.0486 160.256 70.9725C160.085 70.89 159.879 70.8488 159.638 70.8488C159.39 70.8488 159.175 70.89 158.991 70.9725C158.807 71.0549 158.651 71.1691 158.524 71.315C158.404 71.4546 158.312 71.6227 158.248 71.8194C158.185 72.016 158.153 72.2285 158.153 72.4569C158.153 72.92 158.271 73.2974 158.505 73.5892C158.746 73.8747 159.098 74.0174 159.562 74.0174Z" fill="#3A75B4"/>
<path d="M163.648 74.1982C163.623 73.9762 163.607 73.7066 163.6 73.3894C163.594 73.0722 163.591 72.6884 163.591 72.238C163.591 71.794 163.591 71.4356 163.591 71.1628C163.597 70.89 163.616 70.6489 163.648 70.4396C163.68 70.1795 163.727 70.0114 163.791 69.9353C163.861 69.8592 163.949 69.8211 164.057 69.8211C164.133 69.8211 164.2 69.8274 164.257 69.8401C164.32 69.8528 164.374 69.8814 164.419 69.9258C164.47 69.9638 164.508 70.0209 164.533 70.097C164.558 70.1732 164.571 70.2778 164.571 70.4111C164.571 70.4364 164.574 70.4618 164.581 70.4872C164.581 70.5126 164.581 70.5411 164.581 70.5728C164.587 70.5982 164.59 70.6299 164.59 70.668C164.761 70.4523 164.955 70.2683 165.171 70.1161C165.393 69.9638 165.643 69.8877 165.922 69.8877C166.297 69.8877 166.484 70.0431 166.484 70.354C166.484 70.4681 166.458 70.5633 166.408 70.6394C166.363 70.7155 166.297 70.779 166.208 70.8297C166.125 70.8741 166.027 70.909 165.913 70.9344C165.805 70.9598 165.684 70.9852 165.551 71.0105C165.348 71.0486 165.158 71.1215 164.98 71.2294C164.803 71.3309 164.682 71.4609 164.619 71.6195C164.619 71.7401 164.619 71.8289 164.619 71.886C164.625 71.9431 164.628 71.9906 164.628 72.0287C164.634 72.0668 164.638 72.108 164.638 72.1524C164.638 72.1968 164.638 72.2666 164.638 72.3617C164.638 72.6853 164.631 72.9898 164.619 73.2752C164.606 73.5543 164.593 73.8588 164.581 74.1887C164.574 74.341 164.555 74.4583 164.523 74.5408C164.498 74.6233 164.463 74.6867 164.419 74.7311C164.381 74.7755 164.336 74.8009 164.286 74.8072C164.235 74.8199 164.184 74.8263 164.133 74.8263C163.956 74.8263 163.835 74.7882 163.772 74.7121C163.715 74.6296 163.673 74.4583 163.648 74.1982Z" fill="#3A75B4"/>
<path d="M171.812 76.52C171.729 76.6659 171.65 76.7738 171.574 76.8436C171.504 76.9133 171.422 76.9482 171.326 76.9482C171.238 76.9482 171.149 76.9197 171.06 76.8626C170.971 76.8055 170.927 76.7262 170.927 76.6247C170.927 76.5295 170.959 76.3932 171.022 76.2155C171.092 76.0379 171.174 75.8444 171.269 75.6351C171.371 75.4257 171.476 75.2101 171.583 74.988C171.691 74.766 171.79 74.563 171.878 74.379L171.945 74.2363C171.755 73.862 171.558 73.4624 171.355 73.0373C171.158 72.6123 170.978 72.2095 170.813 71.8289C170.648 71.4482 170.511 71.1184 170.403 70.8393C170.302 70.5538 170.251 70.3666 170.251 70.2778C170.251 70.1954 170.283 70.1256 170.346 70.0685C170.416 70.0051 170.502 69.9733 170.603 69.9733C170.692 69.9733 170.778 69.9924 170.86 70.0304C170.943 70.0621 171.019 70.1383 171.089 70.2588C171.19 70.4491 171.295 70.668 171.403 70.9154C171.517 71.1564 171.628 71.4102 171.736 71.6766C171.85 71.9431 171.964 72.2127 172.078 72.4854C172.199 72.7582 172.319 73.0215 172.44 73.2752C172.579 73.0151 172.728 72.7424 172.887 72.4569C173.046 72.1714 173.198 71.8955 173.344 71.629C173.496 71.3626 173.636 71.1184 173.762 70.8963C173.889 70.668 173.997 70.4777 174.086 70.3254C174.175 70.1795 174.264 70.0748 174.352 70.0114C174.441 69.948 174.533 69.9162 174.628 69.9162C174.692 69.9162 174.755 69.9448 174.819 70.0019C174.882 70.0526 174.914 70.1224 174.914 70.2112C174.914 70.3444 174.854 70.5601 174.733 70.8583C174.619 71.1501 174.47 71.4895 174.286 71.8764C174.102 72.2634 173.892 72.6789 173.658 73.123C173.429 73.5607 173.201 73.9921 172.973 74.4171C172.744 74.8358 172.525 75.2291 172.316 75.597C172.113 75.965 171.945 76.2726 171.812 76.52Z" fill="#3A75B4"/>
<path d="M178.536 69.9543C178.898 69.9543 179.221 70.0114 179.507 70.1256C179.792 70.2334 180.033 70.3888 180.23 70.5918C180.433 70.7948 180.589 71.0422 180.696 71.3341C180.804 71.6259 180.858 71.9526 180.858 72.3142C180.858 72.7138 180.795 73.0722 180.668 73.3894C180.547 73.7066 180.376 73.9762 180.154 74.1982C179.938 74.4203 179.678 74.5915 179.374 74.7121C179.076 74.8326 178.749 74.8929 178.394 74.8929C178.007 74.8929 177.664 74.8263 177.366 74.693C177.074 74.5598 176.827 74.379 176.624 74.1507C176.427 73.9223 176.278 73.659 176.176 73.3609C176.075 73.0627 176.024 72.7487 176.024 72.4188C176.024 72.0572 176.081 71.7274 176.196 71.4292C176.316 71.1247 176.484 70.8646 176.7 70.6489C176.922 70.4269 177.188 70.2556 177.499 70.1351C177.81 70.0146 178.156 69.9543 178.536 69.9543ZM178.432 74.0174C178.692 74.0174 178.914 73.973 179.098 73.8842C179.282 73.7891 179.431 73.6654 179.545 73.5131C179.666 73.3609 179.751 73.1896 179.802 72.9993C179.859 72.8026 179.888 72.5996 179.888 72.3903C179.888 72.1746 179.859 71.9748 179.802 71.7908C179.751 71.6005 179.669 71.4356 179.554 71.296C179.447 71.1564 179.304 71.0486 179.126 70.9725C178.955 70.89 178.749 70.8488 178.508 70.8488C178.26 70.8488 178.045 70.89 177.861 70.9725C177.677 71.0549 177.521 71.1691 177.394 71.315C177.274 71.4546 177.182 71.6227 177.119 71.8194C177.055 72.016 177.023 72.2285 177.023 72.4569C177.023 72.92 177.141 73.2974 177.375 73.5892C177.616 73.8747 177.969 74.0174 178.432 74.0174Z" fill="#3A75B4"/>
<path d="M183.308 70.4681C183.321 70.6331 183.324 70.8329 183.317 71.0676C183.317 71.3023 183.321 71.5497 183.327 71.8098C183.34 72.0636 183.362 72.3205 183.394 72.5806C183.425 72.8343 183.479 73.0627 183.555 73.2657C183.638 73.4687 183.749 73.6336 183.888 73.7605C184.034 73.8874 184.221 73.9508 184.45 73.9508C184.678 73.9508 184.862 73.8874 185.002 73.7605C185.148 73.6336 185.259 73.4687 185.335 73.2657C185.417 73.0627 185.474 72.8343 185.506 72.5806C185.538 72.3205 185.557 72.0636 185.563 71.8098C185.576 71.5497 185.579 71.3023 185.573 71.0676C185.573 70.8329 185.579 70.6331 185.592 70.4681C185.617 70.0748 185.779 69.8782 186.077 69.8782C186.191 69.8782 186.28 69.9099 186.343 69.9733C186.407 70.0368 186.451 70.1256 186.477 70.2398C186.508 70.354 186.527 70.4903 186.534 70.6489C186.54 70.8075 186.543 70.9852 186.543 71.1818C186.543 71.5878 186.521 72.0097 186.477 72.4474C186.439 72.8787 186.347 73.2752 186.201 73.6368C186.061 73.9984 185.852 74.2966 185.573 74.5313C185.293 74.766 184.919 74.8834 184.45 74.8834C183.98 74.8834 183.606 74.766 183.327 74.5313C183.048 74.2966 182.835 73.9984 182.689 73.6368C182.55 73.2752 182.458 72.8787 182.413 72.4474C182.375 72.0097 182.356 71.5878 182.356 71.1818C182.356 70.9852 182.36 70.8075 182.366 70.6489C182.372 70.4903 182.388 70.354 182.413 70.2398C182.445 70.1256 182.493 70.0368 182.556 69.9733C182.62 69.9099 182.708 69.8782 182.823 69.8782C183.121 69.8782 183.283 70.0748 183.308 70.4681Z" fill="#3A75B4"/>
<path d="M83.0195 73.3323C83.0068 73.1293 82.9941 72.8534 82.9814 72.5045C82.9687 72.1556 82.9624 71.7971 82.9624 71.4292C82.9624 71.2199 82.9624 71.0042 82.9624 70.7822C82.9687 70.5538 82.9751 70.3222 82.9814 70.0875C82.9941 69.6181 83.0227 69.2502 83.0671 68.9837C83.1178 68.7173 83.213 68.5175 83.3525 68.3842C83.4984 68.251 83.7014 68.1686 83.9615 68.1368C84.2216 68.1051 84.5674 68.0893 84.9987 68.0893C85.0051 68.0893 85.0717 68.0893 85.1986 68.0893C85.3318 68.0893 85.4904 68.0924 85.6743 68.0988C85.8583 68.0988 86.0486 68.1019 86.2453 68.1083C86.4483 68.1146 86.6164 68.121 86.7496 68.1273C86.8891 68.14 87.0002 68.159 87.0826 68.1844C87.1714 68.2034 87.238 68.232 87.2825 68.2701C87.3269 68.3018 87.3554 68.343 87.3681 68.3938C87.3808 68.4382 87.3871 68.4889 87.3871 68.546C87.3871 68.6919 87.3459 68.7998 87.2634 68.8695C87.181 68.933 87.0128 68.9742 86.7591 68.9932C86.6322 69.0059 86.4451 69.0154 86.1977 69.0218C85.9566 69.0218 85.7092 69.0218 85.4555 69.0218C85.2017 69.0218 84.9734 69.025 84.7704 69.0313C84.5674 69.0313 84.4405 69.0313 84.3897 69.0313C84.2248 69.0376 84.1074 69.0757 84.0377 69.1455C83.9742 69.2089 83.9425 69.3643 83.9425 69.6117C83.9425 69.6688 83.9457 69.8084 83.952 70.0304C83.9647 70.2461 83.971 70.5506 83.971 70.9439H84.7608C85.0971 70.9439 85.3698 70.9503 85.5792 70.963C85.7949 70.9693 85.9598 70.9883 86.074 71.02C86.1945 71.0518 86.277 71.1025 86.3214 71.1723C86.3658 71.2421 86.388 71.3341 86.388 71.4482C86.388 71.5053 86.3817 71.5593 86.369 71.61C86.3626 71.6544 86.3372 71.6956 86.2928 71.7337C86.2484 71.7654 86.185 71.794 86.1025 71.8194C86.0201 71.8384 85.9027 71.8542 85.7505 71.8669C85.5665 71.8796 85.392 71.8891 85.2271 71.8955C85.0685 71.8955 84.9099 71.8955 84.7513 71.8955H83.952C83.952 71.9906 83.952 72.1048 83.952 72.238C83.952 72.3713 83.952 72.5076 83.952 72.6472C83.952 72.7868 83.952 72.9232 83.952 73.0564C83.9584 73.1896 83.9647 73.2974 83.971 73.3799C83.9774 73.4814 83.9901 73.567 84.0091 73.6368C84.0345 73.7066 84.0757 73.7637 84.1328 73.8081C84.1962 73.8525 84.2851 73.8842 84.3992 73.9033C84.5198 73.9223 84.6784 73.9318 84.875 73.9318H86.9209C87.1429 73.9318 87.2825 73.973 87.3395 74.0555C87.3966 74.138 87.4252 74.249 87.4252 74.3885C87.4252 74.5027 87.3998 74.5915 87.3491 74.655C87.2983 74.7121 87.1746 74.7533 86.978 74.7787C86.7876 74.8104 86.499 74.8294 86.112 74.8358C85.7314 74.8421 85.2049 74.8453 84.5325 74.8453C84.247 74.8453 84.0123 74.8199 83.8283 74.7692C83.6443 74.7184 83.4953 74.6328 83.3811 74.5122C83.2669 74.3917 83.1813 74.2363 83.1242 74.046C83.0734 73.8493 83.0385 73.6114 83.0195 73.3323Z" stroke="#3A75B4" stroke-width="0.6"/>
<path d="M91.0322 69.9258C91.2161 69.9258 91.4001 69.9416 91.5841 69.9733C91.7744 70.0051 91.9457 70.0495 92.0979 70.1066C92.2502 70.1636 92.3739 70.2334 92.469 70.3159C92.5642 70.3984 92.6117 70.4935 92.6117 70.6014C92.6117 70.8805 92.4532 71.02 92.136 71.02C92.0598 71.02 91.9869 71.0105 91.9171 70.9915C91.8537 70.9661 91.7776 70.9439 91.6887 70.9249C91.5999 70.8995 91.4889 70.8773 91.3557 70.8583C91.2225 70.8329 91.0575 70.8202 90.8609 70.8202C90.4422 70.8202 90.1187 70.963 89.8903 71.2484C89.6619 71.5339 89.5477 71.905 89.5477 72.3617C89.5477 72.8629 89.6619 73.2657 89.8903 73.5702C90.125 73.8747 90.4549 74.027 90.8799 74.027C91.1464 74.027 91.362 74.0048 91.527 73.9603C91.6919 73.9159 91.8251 73.8652 91.9266 73.8081C92.0345 73.751 92.1201 73.7003 92.1835 73.6558C92.2533 73.6114 92.3295 73.5892 92.4119 73.5892C92.5261 73.5892 92.6149 73.6146 92.6784 73.6654C92.7481 73.7098 92.783 73.8049 92.783 73.9508C92.783 74.1031 92.7228 74.2363 92.6022 74.3505C92.488 74.4647 92.3421 74.5598 92.1645 74.6359C91.9869 74.7121 91.7934 74.7692 91.5841 74.8072C91.3811 74.8453 91.1939 74.8643 91.0227 74.8643C90.2551 74.8643 89.6524 74.6518 89.2147 74.2268C88.777 73.8018 88.5581 73.1991 88.5581 72.4188C88.5581 72.0826 88.6089 71.7654 88.7104 71.4673C88.8182 71.1628 88.9768 70.8963 89.1862 70.668C89.3955 70.4396 89.6524 70.2588 89.9569 70.1256C90.2678 69.9924 90.6262 69.9258 91.0322 69.9258Z" stroke="#3A75B4" stroke-width="0.6"/>
<path d="M96.5518 69.9543C96.9134 69.9543 97.237 70.0114 97.5224 70.1256C97.8079 70.2334 98.049 70.3888 98.2456 70.5918C98.4486 70.7948 98.604 71.0422 98.7119 71.3341C98.8197 71.6259 98.8736 71.9526 98.8736 72.3142C98.8736 72.7138 98.8102 73.0722 98.6833 73.3894C98.5628 73.7066 98.3915 73.9762 98.1695 74.1982C97.9538 74.4203 97.6937 74.5915 97.3892 74.7121C97.0911 74.8326 96.7644 74.8929 96.4091 74.8929C96.0221 74.8929 95.6796 74.8263 95.3814 74.693C95.0896 74.5598 94.8422 74.379 94.6392 74.1507C94.4426 73.9223 94.2935 73.659 94.192 73.3609C94.0905 73.0627 94.0397 72.7487 94.0397 72.4188C94.0397 72.0572 94.0968 71.7274 94.211 71.4292C94.3316 71.1247 94.4997 70.8646 94.7153 70.6489C94.9374 70.4269 95.2038 70.2556 95.5147 70.1351C95.8255 70.0146 96.1712 69.9543 96.5518 69.9543ZM96.4472 74.0174C96.7073 74.0174 96.9293 73.973 97.1133 73.8842C97.2972 73.7891 97.4463 73.6654 97.5605 73.5131C97.681 73.3609 97.7667 73.1896 97.8174 72.9993C97.8745 72.8026 97.9031 72.5996 97.9031 72.3903C97.9031 72.1746 97.8745 71.9748 97.8174 71.7908C97.7667 71.6005 97.6842 71.4356 97.57 71.296C97.4622 71.1564 97.3194 71.0486 97.1418 70.9725C96.9705 70.89 96.7644 70.8488 96.5233 70.8488C96.2759 70.8488 96.0602 70.89 95.8762 70.9725C95.6923 71.0549 95.5369 71.1691 95.41 71.315C95.2895 71.4546 95.1975 71.6227 95.134 71.8194C95.0706 72.016 95.0389 72.2285 95.0389 72.4569C95.0389 72.92 95.1562 73.2974 95.391 73.5892C95.632 73.8747 95.9841 74.0174 96.4472 74.0174Z" stroke="#3A75B4" stroke-width="0.6"/>
<path d="M102.722 70.7251C102.488 70.7251 102.275 70.7631 102.085 70.8393C101.901 70.9154 101.691 71.0296 101.457 71.1818C101.457 71.315 101.457 71.5117 101.457 71.7718C101.457 72.0255 101.453 72.3046 101.447 72.6091C101.441 72.9073 101.434 73.2023 101.428 73.4941C101.422 73.7859 101.409 74.0301 101.39 74.2268C101.377 74.3537 101.362 74.4552 101.342 74.5313C101.33 74.6011 101.308 74.655 101.276 74.693C101.25 74.7311 101.212 74.7565 101.162 74.7692C101.117 74.7755 101.057 74.7787 100.981 74.7787C100.905 74.7787 100.841 74.7755 100.791 74.7692C100.746 74.7565 100.708 74.7343 100.676 74.7026C100.645 74.6645 100.619 74.6106 100.6 74.5408C100.581 74.471 100.565 74.3759 100.553 74.2553C100.54 74.1411 100.527 73.9889 100.515 73.7986C100.508 73.6083 100.502 73.4021 100.496 73.1801C100.489 72.9517 100.483 72.7233 100.477 72.495C100.477 72.2602 100.477 72.0446 100.477 71.8479C100.477 71.5244 100.48 71.2611 100.486 71.0581C100.499 70.8551 100.518 70.6743 100.543 70.5157C100.581 70.2493 100.632 70.0812 100.695 70.0114C100.759 69.9416 100.844 69.9067 100.952 69.9067C101.111 69.9067 101.228 69.9511 101.304 70.0399C101.387 70.1288 101.438 70.2747 101.457 70.4777C101.691 70.2747 101.942 70.1129 102.208 69.9924C102.481 69.8718 102.76 69.8116 103.046 69.8116C103.319 69.8116 103.566 69.875 103.788 70.0019C104.016 70.1288 104.203 70.3349 104.349 70.6204C104.438 70.7917 104.505 70.982 104.549 71.1913C104.594 71.3943 104.625 71.61 104.644 71.8384C104.651 71.9399 104.657 72.0414 104.663 72.1429C104.67 72.238 104.673 72.3427 104.673 72.4569C104.679 72.5647 104.682 72.6884 104.682 72.828C104.682 72.9676 104.682 73.1325 104.682 73.3228C104.682 73.5258 104.679 73.7161 104.673 73.8937C104.667 74.0714 104.648 74.2268 104.616 74.36C104.59 74.4869 104.543 74.5884 104.473 74.6645C104.403 74.7343 104.308 74.7692 104.188 74.7692C103.896 74.7692 103.744 74.6296 103.731 74.3505C103.731 74.3315 103.731 74.2522 103.731 74.1126C103.731 73.9667 103.728 73.7986 103.721 73.6083C103.721 73.418 103.718 73.2245 103.712 73.0278C103.712 72.8312 103.709 72.6694 103.702 72.5425C103.696 72.441 103.686 72.3332 103.674 72.219C103.667 72.0985 103.655 71.9779 103.636 71.8574C103.623 71.7369 103.604 71.6227 103.579 71.5149C103.553 71.4007 103.522 71.2992 103.483 71.2104C103.395 71.001 103.284 70.8678 103.15 70.8107C103.017 70.7536 102.874 70.7251 102.722 70.7251Z" stroke="#3A75B4" stroke-width="0.6"/>
<path d="M108.742 69.9543C109.104 69.9543 109.427 70.0114 109.713 70.1256C109.998 70.2334 110.239 70.3888 110.436 70.5918C110.639 70.7948 110.794 71.0422 110.902 71.3341C111.01 71.6259 111.064 71.9526 111.064 72.3142C111.064 72.7138 111 73.0722 110.874 73.3894C110.753 73.7066 110.582 73.9762 110.36 74.1982C110.144 74.4203 109.884 74.5915 109.58 74.7121C109.281 74.8326 108.955 74.8929 108.599 74.8929C108.212 74.8929 107.87 74.8263 107.572 74.693C107.28 74.5598 107.033 74.379 106.83 74.1507C106.633 73.9223 106.484 73.659 106.382 73.3609C106.281 73.0627 106.23 72.7487 106.23 72.4188C106.23 72.0572 106.287 71.7274 106.401 71.4292C106.522 71.1247 106.69 70.8646 106.906 70.6489C107.128 70.4269 107.394 70.2556 107.705 70.1351C108.016 70.0146 108.362 69.9543 108.742 69.9543ZM108.637 74.0174C108.898 74.0174 109.12 73.973 109.304 73.8842C109.488 73.7891 109.637 73.6654 109.751 73.5131C109.871 73.3609 109.957 73.1896 110.008 72.9993C110.065 72.8026 110.093 72.5996 110.093 72.3903C110.093 72.1746 110.065 71.9748 110.008 71.7908C109.957 71.6005 109.874 71.4356 109.76 71.296C109.652 71.1564 109.51 71.0486 109.332 70.9725C109.161 70.89 108.955 70.8488 108.714 70.8488C108.466 70.8488 108.25 70.89 108.067 70.9725C107.883 71.0549 107.727 71.1691 107.6 71.315C107.48 71.4546 107.388 71.6227 107.324 71.8194C107.261 72.016 107.229 72.2285 107.229 72.4569C107.229 72.92 107.347 73.2974 107.581 73.5892C107.822 73.8747 108.174 74.0174 108.637 74.0174Z" stroke="#3A75B4" stroke-width="0.6"/>
<path d="M119.09 74.4932C119.052 74.3854 119.026 74.2648 119.014 74.1316C119.007 73.9984 119.004 73.8335 119.004 73.6368C119.004 73.4973 119.004 73.3894 119.004 73.3133C119.011 73.2308 119.014 73.161 119.014 73.1039C119.014 73.0405 119.014 72.9802 119.014 72.9232C119.02 72.8597 119.023 72.7741 119.023 72.6662C119.023 72.4442 119.017 72.2222 119.004 72.0001C118.998 71.7718 118.966 71.5688 118.909 71.3912C118.852 71.2072 118.763 71.0581 118.643 70.9439C118.522 70.8297 118.348 70.7726 118.119 70.7726C117.732 70.7726 117.431 70.9566 117.215 71.3245C117 71.6925 116.87 72.2793 116.825 73.0849C116.812 73.3387 116.806 73.5702 116.806 73.7796C116.806 73.9889 116.793 74.1697 116.768 74.3219C116.743 74.4678 116.695 74.582 116.625 74.6645C116.562 74.747 116.454 74.7882 116.302 74.7882C116.162 74.7882 116.061 74.7533 115.997 74.6835C115.934 74.6074 115.886 74.4964 115.855 74.3505C115.829 74.2046 115.813 74.027 115.807 73.8176C115.807 73.6083 115.797 73.364 115.778 73.0849C115.759 72.7804 115.728 72.4886 115.683 72.2095C115.645 71.9304 115.579 71.6861 115.483 71.4768C115.395 71.2611 115.271 71.0898 115.112 70.963C114.96 70.8361 114.763 70.7726 114.522 70.7726C114.294 70.7726 114.116 70.8297 113.99 70.9439C113.869 71.0518 113.78 71.1977 113.723 71.3816C113.666 71.5593 113.631 71.7623 113.618 71.9906C113.612 72.2127 113.609 72.4379 113.609 72.6662C113.609 72.7804 113.609 72.8661 113.609 72.9232C113.615 72.9739 113.618 73.0215 113.618 73.0659C113.618 73.1103 113.618 73.1674 113.618 73.2372C113.625 73.3069 113.628 73.4148 113.628 73.5607C113.628 73.77 113.622 73.9508 113.609 74.1031C113.603 74.2553 113.58 74.3854 113.542 74.4932C113.498 74.6201 113.438 74.6994 113.361 74.7311C113.285 74.7565 113.216 74.7692 113.152 74.7692C112.955 74.7692 112.829 74.6994 112.772 74.5598C112.714 74.4203 112.683 74.2173 112.676 73.9508C112.676 73.8049 112.673 73.6432 112.667 73.4655C112.667 73.2816 112.667 73.0595 112.667 72.7995C112.667 72.6726 112.667 72.5616 112.667 72.4664C112.667 72.3713 112.667 72.2793 112.667 72.1905C112.673 72.1016 112.676 72.0128 112.676 71.924C112.683 71.8289 112.689 71.721 112.695 71.6005C112.714 71.2135 112.784 70.9059 112.905 70.6775C113.025 70.4428 113.168 70.2651 113.333 70.1446C113.498 70.0241 113.675 69.948 113.866 69.9162C114.056 69.8782 114.231 69.8592 114.389 69.8592C114.732 69.8592 115.02 69.9099 115.255 70.0114C115.49 70.1129 115.68 70.2461 115.826 70.4111C115.978 70.576 116.089 70.7631 116.159 70.9725C116.235 71.1818 116.286 71.3943 116.311 71.61C116.337 71.4007 116.387 71.1945 116.464 70.9915C116.546 70.7822 116.663 70.5982 116.816 70.4396C116.974 70.2747 117.177 70.1414 117.425 70.0399C117.672 69.9384 117.977 69.8877 118.338 69.8877C118.509 69.8877 118.684 69.9067 118.861 69.9448C119.045 69.9765 119.214 70.0526 119.366 70.1732C119.518 70.2937 119.645 70.4681 119.746 70.6965C119.854 70.9185 119.918 71.2199 119.937 71.6005C119.943 71.721 119.946 71.8289 119.946 71.924C119.953 72.0128 119.956 72.1016 119.956 72.1905C119.962 72.2793 119.965 72.3713 119.965 72.4664C119.965 72.5616 119.965 72.6726 119.965 72.7995C119.965 73.0595 119.962 73.2816 119.956 73.4655C119.956 73.6432 119.956 73.8049 119.956 73.9508C119.956 74.0714 119.949 74.1824 119.937 74.2839C119.93 74.3854 119.911 74.471 119.88 74.5408C119.848 74.6106 119.8 74.6677 119.737 74.7121C119.68 74.7501 119.594 74.7692 119.48 74.7692C119.372 74.7692 119.29 74.7501 119.233 74.7121C119.175 74.6677 119.128 74.5947 119.09 74.4932Z" stroke="#3A75B4" stroke-width="0.6"/>
<path d="M121.905 74.1887C121.892 73.954 121.879 73.6876 121.867 73.3894C121.86 73.0849 121.857 72.7519 121.857 72.3903C121.857 71.9399 121.86 71.5561 121.867 71.2389C121.873 70.9154 121.889 70.6521 121.914 70.4491C121.946 70.2398 121.993 70.0875 122.057 69.9924C122.12 69.8909 122.209 69.8401 122.323 69.8401C122.431 69.8401 122.526 69.8782 122.609 69.9543C122.691 70.0304 122.739 70.1954 122.752 70.4491C122.79 71.1152 122.809 71.7591 122.809 72.3808C122.809 72.698 122.802 72.9961 122.79 73.2752C122.777 73.548 122.764 73.8493 122.752 74.1792C122.745 74.3315 122.729 74.4488 122.704 74.5313C122.685 74.6137 122.656 74.6772 122.618 74.7216C122.58 74.766 122.536 74.7914 122.485 74.7977C122.441 74.8104 122.387 74.8167 122.323 74.8167C122.209 74.8167 122.114 74.7787 122.038 74.7026C121.962 74.6201 121.917 74.4488 121.905 74.1887ZM122.333 68.1178C122.479 68.1178 122.612 68.1749 122.732 68.2891C122.859 68.4033 122.923 68.5397 122.923 68.6983C122.923 68.8505 122.859 68.9837 122.732 69.0979C122.606 69.2058 122.463 69.2597 122.304 69.2597C122.171 69.2597 122.044 69.2058 121.924 69.0979C121.809 68.9837 121.752 68.8442 121.752 68.6792C121.752 68.527 121.809 68.3969 121.924 68.2891C122.044 68.1749 122.181 68.1178 122.333 68.1178Z" stroke="#3A75B4" stroke-width="0.6"/>
<path d="M126.915 69.9258C127.099 69.9258 127.283 69.9416 127.467 69.9733C127.658 70.0051 127.829 70.0495 127.981 70.1066C128.133 70.1636 128.257 70.2334 128.352 70.3159C128.447 70.3984 128.495 70.4935 128.495 70.6014C128.495 70.8805 128.336 71.02 128.019 71.02C127.943 71.02 127.87 71.0105 127.8 70.9915C127.737 70.9661 127.661 70.9439 127.572 70.9249C127.483 70.8995 127.372 70.8773 127.239 70.8583C127.106 70.8329 126.941 70.8202 126.744 70.8202C126.325 70.8202 126.002 70.963 125.774 71.2484C125.545 71.5339 125.431 71.905 125.431 72.3617C125.431 72.8629 125.545 73.2657 125.774 73.5702C126.008 73.8747 126.338 74.027 126.763 74.027C127.03 74.027 127.245 74.0048 127.41 73.9603C127.575 73.9159 127.708 73.8652 127.81 73.8081C127.918 73.751 128.003 73.7003 128.067 73.6558C128.137 73.6114 128.213 73.5892 128.295 73.5892C128.409 73.5892 128.498 73.6146 128.562 73.6654C128.631 73.7098 128.666 73.8049 128.666 73.9508C128.666 74.1031 128.606 74.2363 128.485 74.3505C128.371 74.4647 128.225 74.5598 128.048 74.6359C127.87 74.7121 127.677 74.7692 127.467 74.8072C127.264 74.8453 127.077 74.8643 126.906 74.8643C126.138 74.8643 125.536 74.6518 125.098 74.2268C124.66 73.8018 124.441 73.1991 124.441 72.4188C124.441 72.0826 124.492 71.7654 124.594 71.4673C124.701 71.1628 124.86 70.8963 125.069 70.668C125.279 70.4396 125.536 70.2588 125.84 70.1256C126.151 69.9924 126.509 69.9258 126.915 69.9258Z" stroke="#3A75B4" stroke-width="0.6"/>
<path d="M133.805 74.1602C133.786 73.7605 133.773 73.2879 133.767 72.7424C133.767 72.1905 133.767 71.5656 133.767 70.8678C133.704 70.8741 133.628 70.8773 133.539 70.8773C133.456 70.8773 133.39 70.8773 133.339 70.8773C133.225 70.8773 133.12 70.8741 133.025 70.8678C132.936 70.8615 132.857 70.8424 132.787 70.8107C132.717 70.779 132.663 70.7346 132.625 70.6775C132.587 70.614 132.568 70.5284 132.568 70.4206C132.568 70.1161 132.797 69.9638 133.253 69.9638C133.323 69.9638 133.409 69.9638 133.51 69.9638C133.612 69.9638 133.697 69.9702 133.767 69.9829C133.767 69.6466 133.773 69.377 133.786 69.174C133.799 68.971 133.821 68.8156 133.853 68.7078C133.891 68.5936 133.938 68.5206 133.995 68.4889C134.059 68.4509 134.138 68.4318 134.233 68.4318C134.335 68.4318 134.417 68.4667 134.481 68.5365C134.544 68.6063 134.592 68.6951 134.623 68.8029C134.662 68.9108 134.684 69.0313 134.69 69.1645C134.703 69.2977 134.709 69.4278 134.709 69.5547C134.709 69.6435 134.706 69.7259 134.7 69.8021C134.7 69.8718 134.7 69.9353 134.7 69.9924C134.788 69.967 134.88 69.9543 134.976 69.9543C135.071 69.948 135.163 69.9448 135.252 69.9448C135.486 69.9448 135.667 69.9829 135.794 70.059C135.921 70.1288 135.984 70.2461 135.984 70.4111C135.984 70.5126 135.962 70.595 135.918 70.6585C135.873 70.7155 135.813 70.76 135.737 70.7917C135.667 70.8234 135.581 70.8456 135.48 70.8583C135.385 70.8646 135.28 70.8678 135.166 70.8678C135.102 70.8678 135.029 70.8678 134.947 70.8678C134.865 70.8678 134.788 70.8615 134.719 70.8488C134.719 71.185 134.719 71.4927 134.719 71.7718C134.719 72.0509 134.715 72.3205 134.709 72.5806C134.703 72.8343 134.696 73.0881 134.69 73.3418C134.684 73.5956 134.674 73.8652 134.662 74.1507C134.655 74.3029 134.639 74.4203 134.614 74.5027C134.595 74.5852 134.566 74.6486 134.528 74.693C134.49 74.7374 134.446 74.766 134.395 74.7787C134.351 74.785 134.297 74.7882 134.233 74.7882C134.119 74.7882 134.021 74.7501 133.938 74.674C133.862 74.5915 133.818 74.4203 133.805 74.1602Z" stroke="#3A75B4" stroke-width="0.6"/>
<path d="M137.578 74.1982C137.552 73.9762 137.536 73.7066 137.53 73.3894C137.524 73.0722 137.521 72.6884 137.521 72.238C137.521 71.794 137.521 71.4356 137.521 71.1628C137.527 70.89 137.546 70.6489 137.578 70.4396C137.609 70.1795 137.657 70.0114 137.72 69.9353C137.79 69.8592 137.879 69.8211 137.987 69.8211C138.063 69.8211 138.13 69.8274 138.187 69.8401C138.25 69.8528 138.304 69.8814 138.348 69.9258C138.399 69.9638 138.437 70.0209 138.463 70.097C138.488 70.1732 138.501 70.2778 138.501 70.4111C138.501 70.4364 138.504 70.4618 138.51 70.4872C138.51 70.5126 138.51 70.5411 138.51 70.5728C138.517 70.5982 138.52 70.6299 138.52 70.668C138.691 70.4523 138.884 70.2683 139.1 70.1161C139.322 69.9638 139.573 69.8877 139.852 69.8877C140.226 69.8877 140.413 70.0431 140.413 70.354C140.413 70.4681 140.388 70.5633 140.337 70.6394C140.293 70.7155 140.226 70.779 140.137 70.8297C140.055 70.8741 139.957 70.909 139.842 70.9344C139.735 70.9598 139.614 70.9852 139.481 71.0105C139.278 71.0486 139.087 71.1215 138.91 71.2294C138.732 71.3309 138.612 71.4609 138.548 71.6195C138.548 71.7401 138.548 71.8289 138.548 71.886C138.555 71.9431 138.558 71.9906 138.558 72.0287C138.564 72.0668 138.567 72.108 138.567 72.1524C138.567 72.1968 138.567 72.2666 138.567 72.3617C138.567 72.6853 138.561 72.9898 138.548 73.2752C138.536 73.5543 138.523 73.8588 138.51 74.1887C138.504 74.341 138.485 74.4583 138.453 74.5408C138.428 74.6233 138.393 74.6867 138.348 74.7311C138.31 74.7755 138.266 74.8009 138.215 74.8072C138.164 74.8199 138.114 74.8263 138.063 74.8263C137.885 74.8263 137.765 74.7882 137.701 74.7121C137.644 74.6296 137.603 74.4583 137.578 74.1982Z" stroke="#3A75B4" stroke-width="0.6"/>
<path d="M141.945 74.1887C141.932 73.954 141.919 73.6876 141.907 73.3894C141.9 73.0849 141.897 72.7519 141.897 72.3903C141.897 71.9399 141.9 71.5561 141.907 71.2389C141.913 70.9154 141.929 70.6521 141.954 70.4491C141.986 70.2398 142.034 70.0875 142.097 69.9924C142.161 69.8909 142.249 69.8401 142.364 69.8401C142.471 69.8401 142.567 69.8782 142.649 69.9543C142.731 70.0304 142.779 70.1954 142.792 70.4491C142.83 71.1152 142.849 71.7591 142.849 72.3808C142.849 72.698 142.843 72.9961 142.83 73.2752C142.817 73.548 142.804 73.8493 142.792 74.1792C142.785 74.3315 142.77 74.4488 142.744 74.5313C142.725 74.6137 142.697 74.6772 142.659 74.7216C142.62 74.766 142.576 74.7914 142.525 74.7977C142.481 74.8104 142.427 74.8167 142.364 74.8167C142.249 74.8167 142.154 74.7787 142.078 74.7026C142.002 74.6201 141.958 74.4488 141.945 74.1887ZM142.373 68.1178C142.519 68.1178 142.652 68.1749 142.773 68.2891C142.9 68.4033 142.963 68.5397 142.963 68.6983C142.963 68.8505 142.9 68.9837 142.773 69.0979C142.646 69.2058 142.503 69.2597 142.345 69.2597C142.211 69.2597 142.084 69.2058 141.964 69.0979C141.85 68.9837 141.793 68.8442 141.793 68.6792C141.793 68.527 141.85 68.3969 141.964 68.2891C142.084 68.1749 142.221 68.1178 142.373 68.1178Z" stroke="#3A75B4" stroke-width="0.6"/>
<path d="M145.823 76.1489C145.823 76.2694 145.82 76.3836 145.814 76.4915C145.807 76.6057 145.785 76.7072 145.747 76.796C145.715 76.8848 145.665 76.9546 145.595 77.0053C145.531 77.0624 145.439 77.091 145.319 77.091C145.179 77.091 145.062 77.0402 144.967 76.9387C144.878 76.8436 144.827 76.6723 144.815 76.4249C144.808 76.2663 144.799 76.0728 144.786 75.8444C144.773 75.616 144.761 75.375 144.748 75.1212C144.742 74.8675 144.732 74.6137 144.719 74.36C144.713 74.1063 144.71 73.8715 144.71 73.6558C144.71 72.9136 144.761 72.3015 144.862 71.8194C144.97 71.3372 145.129 70.9534 145.338 70.668C145.547 70.3825 145.804 70.1827 146.109 70.0685C146.42 69.9543 146.778 69.8972 147.184 69.8972C147.508 69.8972 147.812 69.948 148.097 70.0495C148.383 70.1446 148.63 70.2969 148.84 70.5062C149.055 70.7092 149.227 70.9756 149.354 71.3055C149.48 71.629 149.544 72.0192 149.544 72.4759C149.544 72.8565 149.477 73.1928 149.344 73.4846C149.217 73.7764 149.04 74.0238 148.811 74.2268C148.583 74.4234 148.313 74.5757 148.002 74.6835C147.698 74.785 147.371 74.8358 147.022 74.8358C146.724 74.8358 146.454 74.7755 146.213 74.655C145.979 74.5281 145.811 74.3917 145.709 74.2458C145.741 74.6011 145.766 74.9309 145.785 75.2354C145.811 75.5399 145.823 75.8444 145.823 76.1489ZM147.136 70.8488C146.914 70.8488 146.721 70.8868 146.556 70.963C146.397 71.0391 146.267 71.1437 146.166 71.277C146.064 71.4102 145.988 71.5688 145.937 71.7527C145.893 71.9367 145.871 72.1365 145.871 72.3522C145.871 72.5616 145.89 72.7614 145.928 72.9517C145.972 73.1357 146.042 73.2974 146.137 73.437C146.232 73.5766 146.359 73.6876 146.518 73.77C146.676 73.8525 146.87 73.8937 147.098 73.8937C147.276 73.8937 147.447 73.8715 147.612 73.8271C147.777 73.7764 147.923 73.6939 148.05 73.5797C148.183 73.4655 148.288 73.3133 148.364 73.123C148.446 72.9327 148.488 72.6948 148.488 72.4093C148.488 72.1175 148.446 71.8733 148.364 71.6766C148.288 71.4736 148.183 71.3119 148.05 71.1913C147.923 71.0645 147.777 70.9756 147.612 70.9249C147.454 70.8741 147.295 70.8488 147.136 70.8488Z" stroke="#3A75B4" stroke-width="0.6"/>
<path d="M154.129 70.9154C154.059 70.9217 153.989 70.9281 153.92 70.9344C153.856 70.9344 153.793 70.9344 153.729 70.9344C153.52 70.9344 153.365 70.9027 153.263 70.8393C153.155 70.7695 153.101 70.6394 153.101 70.4491C153.101 70.3032 153.142 70.189 153.225 70.1066C153.301 70.0177 153.456 69.9733 153.691 69.9733C153.837 69.9733 153.986 69.9829 154.138 70.0019V69.45C154.138 69.1962 154.167 68.9552 154.224 68.7268C154.281 68.4984 154.37 68.2986 154.491 68.1273C154.611 67.9497 154.766 67.8101 154.957 67.7086C155.153 67.6008 155.391 67.5469 155.67 67.5469C155.924 67.5469 156.102 67.5849 156.203 67.6611C156.305 67.7308 156.356 67.8482 156.356 68.0131C156.356 68.1781 156.289 68.2796 156.156 68.3176C156.023 68.3557 155.87 68.3747 155.699 68.3747C155.49 68.3747 155.331 68.4667 155.223 68.6507C155.122 68.8346 155.071 69.0598 155.071 69.3263V69.9924C155.153 69.9733 155.233 69.9638 155.309 69.9638C155.391 69.9575 155.477 69.9543 155.566 69.9543C155.8 69.9543 155.965 69.9924 156.061 70.0685C156.162 70.1446 156.213 70.2651 156.213 70.4301C156.213 70.6394 156.146 70.7758 156.013 70.8393C155.88 70.8963 155.702 70.9249 155.48 70.9249C155.423 70.9249 155.356 70.9249 155.28 70.9249C155.211 70.9249 155.141 70.9185 155.071 70.9059V74.1792C155.071 74.3315 155.058 74.4488 155.033 74.5313C155.008 74.6137 154.973 74.6772 154.928 74.7216C154.884 74.766 154.833 74.7914 154.776 74.7977C154.719 74.8104 154.659 74.8167 154.595 74.8167C154.538 74.8167 154.481 74.8072 154.424 74.7882C154.367 74.7755 154.316 74.747 154.272 74.7026C154.234 74.6518 154.199 74.5852 154.167 74.5027C154.142 74.4203 154.129 74.3156 154.129 74.1887V70.9154Z" stroke="#3A75B4" stroke-width="0.6"/>
<path d="M159.666 69.9543C160.028 69.9543 160.351 70.0114 160.637 70.1256C160.922 70.2334 161.163 70.3888 161.36 70.5918C161.563 70.7948 161.718 71.0422 161.826 71.3341C161.934 71.6259 161.988 71.9526 161.988 72.3142C161.988 72.7138 161.925 73.0722 161.798 73.3894C161.677 73.7066 161.506 73.9762 161.284 74.1982C161.068 74.4203 160.808 74.5915 160.504 74.7121C160.205 74.8326 159.879 74.8929 159.523 74.8929C159.137 74.8929 158.794 74.8263 158.496 74.693C158.204 74.5598 157.957 74.379 157.754 74.1507C157.557 73.9223 157.408 73.659 157.306 73.3609C157.205 73.0627 157.154 72.7487 157.154 72.4188C157.154 72.0572 157.211 71.7274 157.325 71.4292C157.446 71.1247 157.614 70.8646 157.83 70.6489C158.052 70.4269 158.318 70.2556 158.629 70.1351C158.94 70.0146 159.286 69.9543 159.666 69.9543ZM159.562 74.0174C159.822 74.0174 160.044 73.973 160.228 73.8842C160.412 73.7891 160.561 73.6654 160.675 73.5131C160.795 73.3609 160.881 73.1896 160.932 72.9993C160.989 72.8026 161.017 72.5996 161.017 72.3903C161.017 72.1746 160.989 71.9748 160.932 71.7908C160.881 71.6005 160.799 71.4356 160.684 71.296C160.577 71.1564 160.434 71.0486 160.256 70.9725C160.085 70.89 159.879 70.8488 159.638 70.8488C159.39 70.8488 159.175 70.89 158.991 70.9725C158.807 71.0549 158.651 71.1691 158.524 71.315C158.404 71.4546 158.312 71.6227 158.248 71.8194C158.185 72.016 158.153 72.2285 158.153 72.4569C158.153 72.92 158.271 73.2974 158.505 73.5892C158.746 73.8747 159.098 74.0174 159.562 74.0174Z" stroke="#3A75B4" stroke-width="0.6"/>
<path d="M163.648 74.1982C163.623 73.9762 163.607 73.7066 163.6 73.3894C163.594 73.0722 163.591 72.6884 163.591 72.238C163.591 71.794 163.591 71.4356 163.591 71.1628C163.597 70.89 163.616 70.6489 163.648 70.4396C163.68 70.1795 163.727 70.0114 163.791 69.9353C163.861 69.8592 163.949 69.8211 164.057 69.8211C164.133 69.8211 164.2 69.8274 164.257 69.8401C164.32 69.8528 164.374 69.8814 164.419 69.9258C164.47 69.9638 164.508 70.0209 164.533 70.097C164.558 70.1732 164.571 70.2778 164.571 70.4111C164.571 70.4364 164.574 70.4618 164.581 70.4872C164.581 70.5126 164.581 70.5411 164.581 70.5728C164.587 70.5982 164.59 70.6299 164.59 70.668C164.761 70.4523 164.955 70.2683 165.171 70.1161C165.393 69.9638 165.643 69.8877 165.922 69.8877C166.297 69.8877 166.484 70.0431 166.484 70.354C166.484 70.4681 166.458 70.5633 166.408 70.6394C166.363 70.7155 166.297 70.779 166.208 70.8297C166.125 70.8741 166.027 70.909 165.913 70.9344C165.805 70.9598 165.684 70.9852 165.551 71.0105C165.348 71.0486 165.158 71.1215 164.98 71.2294C164.803 71.3309 164.682 71.4609 164.619 71.6195C164.619 71.7401 164.619 71.8289 164.619 71.886C164.625 71.9431 164.628 71.9906 164.628 72.0287C164.634 72.0668 164.638 72.108 164.638 72.1524C164.638 72.1968 164.638 72.2666 164.638 72.3617C164.638 72.6853 164.631 72.9898 164.619 73.2752C164.606 73.5543 164.593 73.8588 164.581 74.1887C164.574 74.341 164.555 74.4583 164.523 74.5408C164.498 74.6233 164.463 74.6867 164.419 74.7311C164.381 74.7755 164.336 74.8009 164.286 74.8072C164.235 74.8199 164.184 74.8263 164.133 74.8263C163.956 74.8263 163.835 74.7882 163.772 74.7121C163.715 74.6296 163.673 74.4583 163.648 74.1982Z" stroke="#3A75B4" stroke-width="0.6"/>
<path d="M171.812 76.52C171.729 76.6659 171.65 76.7738 171.574 76.8436C171.504 76.9133 171.422 76.9482 171.326 76.9482C171.238 76.9482 171.149 76.9197 171.06 76.8626C170.971 76.8055 170.927 76.7262 170.927 76.6247C170.927 76.5295 170.959 76.3932 171.022 76.2155C171.092 76.0379 171.174 75.8444 171.269 75.6351C171.371 75.4257 171.476 75.2101 171.583 74.988C171.691 74.766 171.79 74.563 171.878 74.379L171.945 74.2363C171.755 73.862 171.558 73.4624 171.355 73.0373C171.158 72.6123 170.978 72.2095 170.813 71.8289C170.648 71.4482 170.511 71.1184 170.403 70.8393C170.302 70.5538 170.251 70.3666 170.251 70.2778C170.251 70.1954 170.283 70.1256 170.346 70.0685C170.416 70.0051 170.502 69.9733 170.603 69.9733C170.692 69.9733 170.778 69.9924 170.86 70.0304C170.943 70.0621 171.019 70.1383 171.089 70.2588C171.19 70.4491 171.295 70.668 171.403 70.9154C171.517 71.1564 171.628 71.4102 171.736 71.6766C171.85 71.9431 171.964 72.2127 172.078 72.4854C172.199 72.7582 172.319 73.0215 172.44 73.2752C172.579 73.0151 172.728 72.7424 172.887 72.4569C173.046 72.1714 173.198 71.8955 173.344 71.629C173.496 71.3626 173.636 71.1184 173.762 70.8963C173.889 70.668 173.997 70.4777 174.086 70.3254C174.175 70.1795 174.264 70.0748 174.352 70.0114C174.441 69.948 174.533 69.9162 174.628 69.9162C174.692 69.9162 174.755 69.9448 174.819 70.0019C174.882 70.0526 174.914 70.1224 174.914 70.2112C174.914 70.3444 174.854 70.5601 174.733 70.8583C174.619 71.1501 174.47 71.4895 174.286 71.8764C174.102 72.2634 173.892 72.6789 173.658 73.123C173.429 73.5607 173.201 73.9921 172.973 74.4171C172.744 74.8358 172.525 75.2291 172.316 75.597C172.113 75.965 171.945 76.2726 171.812 76.52Z" stroke="#3A75B4" stroke-width="0.6"/>
<path d="M178.536 69.9543C178.898 69.9543 179.221 70.0114 179.507 70.1256C179.792 70.2334 180.033 70.3888 180.23 70.5918C180.433 70.7948 180.589 71.0422 180.696 71.3341C180.804 71.6259 180.858 71.9526 180.858 72.3142C180.858 72.7138 180.795 73.0722 180.668 73.3894C180.547 73.7066 180.376 73.9762 180.154 74.1982C179.938 74.4203 179.678 74.5915 179.374 74.7121C179.076 74.8326 178.749 74.8929 178.394 74.8929C178.007 74.8929 177.664 74.8263 177.366 74.693C177.074 74.5598 176.827 74.379 176.624 74.1507C176.427 73.9223 176.278 73.659 176.176 73.3609C176.075 73.0627 176.024 72.7487 176.024 72.4188C176.024 72.0572 176.081 71.7274 176.196 71.4292C176.316 71.1247 176.484 70.8646 176.7 70.6489C176.922 70.4269 177.188 70.2556 177.499 70.1351C177.81 70.0146 178.156 69.9543 178.536 69.9543ZM178.432 74.0174C178.692 74.0174 178.914 73.973 179.098 73.8842C179.282 73.7891 179.431 73.6654 179.545 73.5131C179.666 73.3609 179.751 73.1896 179.802 72.9993C179.859 72.8026 179.888 72.5996 179.888 72.3903C179.888 72.1746 179.859 71.9748 179.802 71.7908C179.751 71.6005 179.669 71.4356 179.554 71.296C179.447 71.1564 179.304 71.0486 179.126 70.9725C178.955 70.89 178.749 70.8488 178.508 70.8488C178.26 70.8488 178.045 70.89 177.861 70.9725C177.677 71.0549 177.521 71.1691 177.394 71.315C177.274 71.4546 177.182 71.6227 177.119 71.8194C177.055 72.016 177.023 72.2285 177.023 72.4569C177.023 72.92 177.141 73.2974 177.375 73.5892C177.616 73.8747 177.969 74.0174 178.432 74.0174Z" stroke="#3A75B4" stroke-width="0.6"/>
<path d="M183.308 70.4681C183.321 70.6331 183.324 70.8329 183.317 71.0676C183.317 71.3023 183.321 71.5497 183.327 71.8098C183.34 72.0636 183.362 72.3205 183.394 72.5806C183.425 72.8343 183.479 73.0627 183.555 73.2657C183.638 73.4687 183.749 73.6336 183.888 73.7605C184.034 73.8874 184.221 73.9508 184.45 73.9508C184.678 73.9508 184.862 73.8874 185.002 73.7605C185.148 73.6336 185.259 73.4687 185.335 73.2657C185.417 73.0627 185.474 72.8343 185.506 72.5806C185.538 72.3205 185.557 72.0636 185.563 71.8098C185.576 71.5497 185.579 71.3023 185.573 71.0676C185.573 70.8329 185.579 70.6331 185.592 70.4681C185.617 70.0748 185.779 69.8782 186.077 69.8782C186.191 69.8782 186.28 69.9099 186.343 69.9733C186.407 70.0368 186.451 70.1256 186.477 70.2398C186.508 70.354 186.527 70.4903 186.534 70.6489C186.54 70.8075 186.543 70.9852 186.543 71.1818C186.543 71.5878 186.521 72.0097 186.477 72.4474C186.439 72.8787 186.347 73.2752 186.201 73.6368C186.061 73.9984 185.852 74.2966 185.573 74.5313C185.293 74.766 184.919 74.8834 184.45 74.8834C183.98 74.8834 183.606 74.766 183.327 74.5313C183.048 74.2966 182.835 73.9984 182.689 73.6368C182.55 73.2752 182.458 72.8787 182.413 72.4474C182.375 72.0097 182.356 71.5878 182.356 71.1818C182.356 70.9852 182.36 70.8075 182.366 70.6489C182.372 70.4903 182.388 70.354 182.413 70.2398C182.445 70.1256 182.493 70.0368 182.556 69.9733C182.62 69.9099 182.708 69.8782 182.823 69.8782C183.121 69.8782 183.283 70.0748 183.308 70.4681Z" stroke="#3A75B4" stroke-width="0.6"/>
<path d="M82.8168 29.2874V21.7605H90.3407L82.8168 29.2874Z" fill="#3A75B4"/>
<path d="M127.157 29.2874V21.7605H134.681L127.157 29.2874Z" fill="black"/>
<path d="M100.113 21.7605H92.7024V59.3307H100.113V21.7605Z" fill="#3A75B4"/>
<path d="M127.013 36.846V59.3301H134.828V36.7788L127.013 36.846Z" fill="#FFC313"/>
<path d="M143.946 40.5618C149.829 40.5618 154.598 36.3703 154.598 31.1992C154.598 26.0287 149.829 21.8373 143.946 21.8373L137.188 21.7605C137.188 21.7605 150.563 30.3768 137.188 40.6182L143.946 40.5618Z" fill="#3A75B4"/>
<path d="M172.508 58.7146C173.388 58.8688 174.259 59.0925 175.148 59.1633C177.445 59.3433 179.736 59.5137 182.015 58.9234C183.759 58.5106 185.316 57.531 186.443 56.138C187.583 54.7524 188.189 53.0039 188.15 51.2099C188.127 46.4743 188.15 41.509 188.15 36.7734C188.15 36.7734 182.731 36.8004 180.718 36.7734C180.718 36.7734 180.727 46.6573 180.741 51.5554C180.747 53.6779 179.777 55.4338 177.625 56.7865C176.025 57.6798 174.3 58.3296 172.508 58.7146Z" fill="#FFC313"/>
<path d="M170.143 36.7788V59.3301H162.696V54.2459H166.214V49.4138H162.696V36.7788H170.143Z" fill="#FFC313"/>
<path d="M156.813 36.7788L150.922 47.5901C149.242 50.6754 151.264 54.5957 154.531 54.5957H158.039V59.0301" stroke="black" stroke-miterlimit="10" stroke-linecap="round"/>
<path d="M158.558 44.1084L154.373 51.7001H158.558V44.1084Z" fill="black"/>
<path d="M26.6888 49.1701L33.5384 47.3188C33.5384 47.3188 45.8669 64.1093 67.817 50.3411C57.3969 60.6695 41.1391 63.8633 26.6888 49.1701Z" fill="#3A75B4"/>
<path d="M17.2591 30.2952C17.2591 30.2952 6.54975 47.0443 29.6451 41.0003C52.7404 34.9564 83.0165 16.9775 83.0165 16.9775C83.0165 16.9775 36.181 51.6155 13.6669 46.9999C6.61034 45.7683 4.43992 38.551 17.2591 30.2952Z" fill="#3A75B4"/>
<path d="M22.6929 40.7225L29.7117 39.7303C29.7117 39.7303 26.1537 23.6159 41.1205 17.1406C56.0873 10.6654 65.2273 25.3424 65.2273 25.3424L72.366 21.4431C72.366 21.4431 60.3537 0.318397 38.232 8.93409C17.811 16.9613 22.6929 40.7225 22.6929 40.7225Z" fill="#3A75B4"/>
<path d="M91.4643 9.78834L96.8369 5.41751C96.8369 5.41751 99.2773 3.7048 96.7487 3.63702C95.5642 3.62166 94.3983 3.933 93.3791 4.53686C91.6851 5.5248 90.0557 6.61963 88.5008 7.81468C84.6429 10.7428 78.269 15.4369 78.269 15.4369C78.269 15.4369 75.2599 14.7333 74.2425 14.7975C73.8501 14.8227 72.5028 15.3056 73.2358 16.005C73.9689 16.7045 76.4837 19.4197 78.095 18.6794C79.7063 17.9391 86.8763 13.1094 86.8763 13.1094L87.421 20.0567C87.421 20.0567 88.9861 19.3705 89.7084 16.7231C90.4306 14.0758 91.4643 9.78834 91.4643 9.78834Z" fill="#3A75B4"/>
</svg>
